    <svg id="pills-1" width="259" height="431" viewBox="0 0 259 431" fill="none" xmlns="http://www.w3.org/2000/svg" data-v-47d99626="" class="" style="transform: translate(0px, 0px); opacity: 1; visibility: inherit">
      <path
        fill-rule="evenodd"
        clip-rule="evenodd"
        d="M-166.255 557.957C-170.95 562.652 -170.964 570.228 -166.288 574.905C-161.611 579.582 -154.034 579.567 -149.34 574.872L-103.891 529.424C-99.1968 524.729 -99.1822 517.153 -103.859 512.476C-108.535 507.799 -116.112 507.814 -120.807 512.509L-166.255 557.957ZM-119.066 514.25C-115.37 510.554 -109.288 510.542 -105.607 514.224C-101.925 517.906 -101.937 523.987 -105.633 527.683L-151.081 573.131C-154.777 576.827 -160.858 576.839 -164.54 573.157C-168.221 569.475 -168.21 563.394 -164.514 559.698L-119.066 514.25ZM-88.3111 496.928C-92.9877 492.252 -92.9731 484.675 -88.2785 479.98L-42.8302 434.532C-38.1355 429.837 -30.5587 429.823 -25.8821 434.499C-21.2054 439.176 -21.22 446.753 -25.9147 451.447L-71.363 496.896C-76.0577 501.59 -83.6344 501.605 -88.3111 496.928ZM-27.6301 436.247C-31.3117 432.566 -37.3931 432.577 -41.0889 436.273L-86.5372 481.722C-90.233 485.417 -90.2447 491.499 -86.5631 495.18C-82.8815 498.862 -76.8001 498.85 -73.1043 495.154L-27.656 449.706C-23.9602 446.01 -23.9485 439.929 -27.6301 436.247ZM-10.3998 419.018C-15.0765 414.341 -15.0619 406.764 -10.3672 402.069L35.0811 356.621C39.7757 351.926 47.3526 351.912 52.0292 356.589C56.7058 361.265 56.6913 368.842 51.9966 373.537L6.54829 418.985C1.85363 423.68 -5.72317 423.694 -10.3998 419.018ZM50.2812 358.337C46.5996 354.655 40.5182 354.667 36.8224 358.362L-8.62593 403.811C-12.3217 407.507 -12.3334 413.588 -8.65181 417.27C-4.9702 420.951 1.1112 420.939 4.80699 417.244L50.2553 371.795C53.9511 368.1 53.9628 362.018 50.2812 358.337ZM146.024 262.593C141.348 257.917 141.362 250.34 146.057 245.645L191.505 200.197C196.2 195.502 203.777 195.488 208.453 200.164C213.13 204.841 213.115 212.418 208.421 217.112L162.972 262.561C158.278 267.255 150.701 267.27 146.024 262.593ZM206.705 201.912C203.024 198.231 196.942 198.242 193.246 201.938L147.798 247.387C144.102 251.082 144.091 257.164 147.772 260.845C151.454 264.527 157.535 264.515 161.231 260.82L206.679 215.371C210.375 211.675 210.387 205.594 206.705 201.912ZM68.1456 323.556C63.4509 328.251 63.4363 335.828 68.113 340.504C72.7896 345.181 80.3664 345.166 85.0611 340.472L130.509 295.023C135.204 290.329 135.219 282.752 130.542 278.075C125.865 273.399 118.289 273.413 113.594 278.108L68.1456 323.556ZM115.335 279.849C119.031 276.153 125.112 276.142 128.794 279.823C132.476 283.505 132.464 289.586 128.768 293.282L83.3198 338.73C79.624 342.426 73.5426 342.438 69.861 338.756C66.1794 335.075 66.1911 328.993 69.8869 325.297L115.335 279.849ZM133.826 125.537C138.502 130.214 138.488 137.79 133.793 142.485L88.3449 187.933C83.6503 192.628 76.0735 192.643 71.3968 187.966C66.7202 183.289 66.7348 175.712 71.4294 171.018L116.878 125.57C121.572 120.875 129.149 120.86 133.826 125.537ZM73.1448 186.218C76.8265 189.9 82.9078 189.888 86.6036 186.192L132.052 140.744C135.748 137.048 135.759 130.967 132.078 127.285C128.396 123.603 122.315 123.615 118.619 127.311L73.1707 172.759C69.4749 176.455 69.4632 182.536 73.1448 186.218ZM-22.6309 298.909C-17.9362 294.214 -17.9216 286.638 -22.5983 281.961C-27.2749 277.284 -34.8517 277.299 -39.5464 281.994L-84.9947 327.442C-89.6894 332.137 -89.7039 339.713 -85.0273 344.39C-80.3506 349.067 -72.7738 349.052 -68.0792 344.357L-22.6309 298.909ZM-69.8205 342.616C-73.5163 346.312 -79.5977 346.324 -83.2793 342.642C-86.9609 338.96 -86.9492 332.879 -83.2534 329.183L-37.8051 283.735C-34.1093 280.039 -28.0279 280.027 -24.3463 283.709C-20.6647 287.391 -20.6764 293.472 -24.3722 297.168L-69.8205 342.616ZM-6.51411 265.877C-11.1908 261.201 -11.1762 253.624 -6.48152 248.929L38.9668 203.481C43.6614 198.786 51.2382 198.772 55.9149 203.448C60.5915 208.125 60.577 215.702 55.8823 220.396L10.434 265.845C5.73935 270.539 -1.83746 270.554 -6.51411 265.877ZM54.1669 205.196C50.4853 201.515 44.4039 201.526 40.7081 205.222L-4.74022 250.67C-8.43602 254.366 -8.4477 260.448 -4.76609 264.129C-1.08447 267.811 4.9969 267.799 8.69271 264.103L54.141 218.655C57.8368 214.959 57.8485 208.878 54.1669 205.196ZM-162.906 405.353C-167.6 410.048 -167.615 417.624 -162.938 422.301C-158.262 426.978 -150.685 426.963 -145.99 422.269L-100.542 376.82C-95.8471 372.126 -95.8325 364.549 -100.509 359.872C-105.186 355.196 -112.763 355.21 -117.457 359.905L-162.906 405.353ZM-115.716 361.646C-112.02 357.95 -105.939 357.939 -102.257 361.62C-98.5756 365.302 -98.5873 371.383 -102.283 375.079L-147.731 420.527C-151.427 424.223 -157.509 424.235 -161.19 420.553C-164.872 416.872 -164.86 410.79 -161.164 407.094L-115.716 361.646ZM151.195 165.88L196.644 120.431C201.338 115.737 208.915 115.722 213.592 120.399C218.268 125.075 218.254 132.652 213.559 137.347L168.111 182.795C163.416 187.49 155.84 187.504 151.163 182.828C146.486 178.151 146.501 170.574 151.195 165.88ZM166.37 181.054L211.818 135.606C215.514 131.91 215.525 125.828 211.844 122.147C208.162 118.465 202.081 118.477 198.385 122.173L152.937 167.621C149.241 171.317 149.229 177.398 152.911 181.08C156.593 184.761 162.674 184.75 166.37 181.054ZM-37.3412 353.047L-82.7895 398.495C-87.4842 403.19 -87.4987 410.767 -82.8221 415.443C-78.1454 420.12 -70.5686 420.105 -65.874 415.411L-20.4257 369.962C-15.731 365.268 -15.7165 357.691 -20.3931 353.014C-25.0698 348.338 -32.6466 348.352 -37.3412 353.047ZM-22.167 368.221L-67.6153 413.669C-71.3111 417.365 -77.3924 417.377 -81.0741 413.695C-84.7557 410.014 -84.744 403.932 -81.0482 400.236L-35.5999 354.788C-31.9041 351.092 -25.8227 351.081 -22.1411 354.762C-18.4595 358.444 -18.4712 364.525 -22.167 368.221ZM73.2835 243.791L118.732 198.343C123.426 193.648 131.003 193.634 135.68 198.31C140.357 202.987 140.342 210.564 135.647 215.258L90.199 260.707C85.5043 265.401 77.9275 265.416 73.2509 260.739C68.5742 256.063 68.5888 248.486 73.2835 243.791ZM88.4577 258.965L133.906 213.517C137.602 209.821 137.613 203.74 133.932 200.058C130.25 196.377 124.169 196.388 120.473 200.084L75.0248 245.532C71.329 249.228 71.3173 255.31 74.9989 258.991C78.6805 262.673 84.7619 262.661 88.4577 258.965ZM-113.699 430.774L-159.147 476.222C-163.842 480.916 -163.856 488.493 -159.18 493.17C-154.503 497.847 -146.926 497.832 -142.232 493.137L-96.7833 447.689C-92.0886 442.994 -92.0741 435.418 -96.7507 430.741C-101.427 426.064 -109.004 426.079 -113.699 430.774ZM-98.5246 445.948L-143.973 491.396C-147.669 495.092 -153.75 495.104 -157.432 491.422C-161.113 487.74 -161.102 481.659 -157.406 477.963L-111.958 432.515C-108.262 428.819 -102.18 428.807 -98.4987 432.489C-94.8171 436.171 -94.8288 442.252 -98.5246 445.948ZM-4.12822 321.203L41.3201 275.755C46.0147 271.06 53.5915 271.046 58.2682 275.722C62.9448 280.399 62.9303 287.976 58.2356 292.67L12.7873 338.119C8.09266 342.813 0.515845 342.828 -4.1608 338.151C-8.83745 333.475 -8.82288 325.898 -4.12822 321.203ZM11.046 336.377L56.4943 290.929C60.1901 287.233 60.2018 281.152 56.5202 277.47C52.8386 273.789 46.7572 273.8 43.0614 277.496L-2.38691 322.945C-6.08271 326.64 -6.0944 332.722 -2.41277 336.403C1.26884 340.085 7.35021 340.073 11.046 336.377ZM13.7178 113.306L59.1661 67.8576C63.8608 63.1629 63.8754 55.5862 59.1988 50.9096C54.5222 46.233 46.9454 46.2476 42.2507 50.9422L-3.19758 96.3905C-7.89224 101.085 -7.90684 108.662 -3.23024 113.339C1.44637 118.015 9.02314 118.001 13.7178 113.306ZM-1.45629 98.1318L43.992 52.6835C47.6878 48.9877 53.7692 48.976 57.4508 52.6576C61.1323 56.3391 61.1206 62.4205 57.4248 66.1163L11.9765 111.565C8.28071 115.26 2.19937 115.272 -1.48222 111.591C-5.1638 107.909 -5.15209 101.828 -1.45629 98.1318ZM-18.7451 145.769L-64.1934 191.217C-68.8881 195.912 -76.4649 195.926 -81.1415 191.25C-85.8181 186.573 -85.8035 178.996 -81.1088 174.302L-35.6605 128.853C-30.9658 124.159 -23.389 124.144 -18.7124 128.821C-14.0358 133.497 -14.0504 141.074 -18.7451 145.769ZM-33.9192 130.595L-79.3675 176.043C-83.0633 179.739 -83.075 185.82 -79.3935 189.502C-75.7119 193.183 -69.6305 193.172 -65.9347 189.476L-20.4864 144.028C-16.7906 140.332 -16.7789 134.25 -20.4605 130.569C-24.142 126.887 -30.2234 126.899 -33.9192 130.595ZM-142.641 269.664L-97.1924 224.216C-92.4978 219.521 -92.4832 211.945 -97.1598 207.268C-101.836 202.592 -109.413 202.606 -114.108 207.301L-159.556 252.749C-164.251 257.444 -164.265 265.021 -159.589 269.697C-154.912 274.374 -147.335 274.359 -142.641 269.664ZM-157.815 254.49L-112.366 209.042C-108.671 205.346 -102.589 205.335 -98.9078 209.016C-95.2262 212.698 -95.2379 218.779 -98.9337 222.475L-144.382 267.923C-148.078 271.619 -154.159 271.631 -157.841 267.949C-161.522 264.268 -161.511 258.186 -157.815 254.49ZM76.5677 91.2522L122.016 45.804C126.711 41.1093 134.287 41.0947 138.964 45.7714C143.641 50.448 143.626 58.0248 138.931 62.7194L93.4831 108.168C88.7885 112.862 81.2117 112.877 76.5351 108.2C71.8585 103.524 71.8731 95.9469 76.5677 91.2522ZM91.7419 106.426L137.19 60.9781C140.886 57.2823 140.898 51.201 137.216 47.5194C133.534 43.8378 127.453 43.8495 123.757 47.5453L78.309 92.9935C74.6132 96.6893 74.6015 102.771 78.2831 106.452C81.9647 110.134 88.0461 110.122 91.7419 106.426ZM44.1051 123.715L-1.34324 169.164C-6.0379 173.858 -6.05245 181.435 -1.3758 186.112C3.30085 190.788 10.8776 190.774 15.5723 186.079L61.0206 140.631C65.7153 135.936 65.7298 128.36 61.0532 123.683C56.3765 119.006 48.7997 119.021 44.1051 123.715ZM59.2793 138.89L13.831 184.338C10.1352 188.034 4.05382 188.045 0.3722 184.364C-3.30942 180.682 -3.29772 174.601 0.398064 170.905L45.8464 125.457C49.5421 121.761 55.6235 121.749 59.3052 125.431C62.9868 129.112 62.9751 135.194 59.2793 138.89ZM-16.3591 201.095C-11.6824 205.772 -11.6969 213.348 -16.3916 218.043L-61.8399 263.491C-66.5345 268.186 -74.1114 268.201 -78.788 263.524C-83.4647 258.847 -83.4502 251.27 -78.7555 246.576L-33.3072 201.127C-28.6126 196.433 -21.0357 196.418 -16.3591 201.095ZM-77.04 261.776C-73.3584 265.458 -67.277 265.446 -63.5812 261.75L-18.1329 216.302C-14.4371 212.606 -14.4254 206.525 -18.1071 202.843C-21.7887 199.161 -27.8701 199.173 -31.5659 202.869L-77.0142 248.317C-80.71 252.013 -80.7217 258.094 -77.04 261.776ZM-94.3682 296.02C-89.6736 291.325 -89.659 283.748 -94.3357 279.072C-99.0124 274.395 -106.589 274.409 -111.284 279.104L-156.732 324.552C-161.427 329.247 -161.441 336.824 -156.765 341.501C-152.088 346.177 -144.511 346.163 -139.817 341.468L-94.3682 296.02ZM-141.558 339.727C-145.254 343.423 -151.335 343.434 -155.017 339.753C-158.698 336.071 -158.687 329.99 -154.991 326.294L-109.543 280.845C-105.847 277.15 -99.7654 277.138 -96.0837 280.82C-92.4021 284.501 -92.4138 290.583 -96.1095 294.278L-141.558 339.727Z"
        fill="#6159fa7e"
        data-v-47d99626=""
      ></path>
    </svg>